<mxfile host="Electron" modified="2023-07-11T05:59:53.333Z" agent="Mozilla/5.0 (Macintosh; Intel Mac OS X 10_15_7) AppleWebKit/537.36 (KHTML, like Gecko) draw.io/21.6.1 Chrome/112.0.5615.204 Electron/24.6.1 Safari/537.36" etag="HalfcbZaGsqIhiDFWkFf" version="21.6.1" type="device">
  <diagram name="Page-1" id="SLpx1iVJKZmlgVIl4cT8">
    <mxGraphModel dx="1114" dy="999" grid="1" gridSize="10" guides="1" tooltips="1" connect="1" arrows="1" fold="1" page="1" pageScale="1" pageWidth="850" pageHeight="1100" math="0" shadow="0">
      <root>
        <mxCell id="0" />
        <mxCell id="1" parent="0" />
        <mxCell id="0ITizFIxnyRm8alX1ikt-30" value="" style="group" vertex="1" connectable="0" parent="1">
          <mxGeometry x="130" y="80" width="640" height="620" as="geometry" />
        </mxCell>
        <mxCell id="0ITizFIxnyRm8alX1ikt-1" value="&lt;font size=&quot;1&quot; face=&quot;FZJingLeiS-R-GB&quot;&gt;&lt;b style=&quot;font-size: 28px;&quot;&gt;数据结构&lt;/b&gt;&lt;/font&gt;" style="rounded=1;whiteSpace=wrap;html=1;sketch=1;hachureGap=4;jiggle=2;curveFitting=1;fontFamily=Architects Daughter;fontSource=https%3A%2F%2Ffonts.googleapis.com%2Fcss%3Ffamily%3DArchitects%2BDaughter;fontSize=20;fillColor=#f8cecc;strokeColor=#b85450;strokeWidth=3;" vertex="1" parent="0ITizFIxnyRm8alX1ikt-30">
          <mxGeometry x="190" y="560" width="120" height="60" as="geometry" />
        </mxCell>
        <mxCell id="0ITizFIxnyRm8alX1ikt-2" value="&lt;font size=&quot;1&quot; face=&quot;FZJingLeiS-R-GB&quot;&gt;&lt;b style=&quot;font-size: 28px;&quot;&gt;原始数据结构&lt;/b&gt;&lt;/font&gt;" style="rounded=1;whiteSpace=wrap;html=1;sketch=1;hachureGap=4;jiggle=2;curveFitting=1;fontFamily=Architects Daughter;fontSource=https%3A%2F%2Ffonts.googleapis.com%2Fcss%3Ffamily%3DArchitects%2BDaughter;fontSize=20;fillColor=#e1d5e7;strokeColor=#9673a6;strokeWidth=3;" vertex="1" parent="0ITizFIxnyRm8alX1ikt-30">
          <mxGeometry x="20" y="440" width="190" height="60" as="geometry" />
        </mxCell>
        <mxCell id="0ITizFIxnyRm8alX1ikt-29" style="edgeStyle=orthogonalEdgeStyle;rounded=0;sketch=1;hachureGap=4;jiggle=2;curveFitting=1;orthogonalLoop=1;jettySize=auto;html=1;exitX=0.5;exitY=0;exitDx=0;exitDy=0;entryX=0.5;entryY=1;entryDx=0;entryDy=0;fontFamily=Architects Daughter;fontSource=https%3A%2F%2Ffonts.googleapis.com%2Fcss%3Ffamily%3DArchitects%2BDaughter;fontSize=16;strokeWidth=3;" edge="1" parent="0ITizFIxnyRm8alX1ikt-30" source="0ITizFIxnyRm8alX1ikt-1" target="0ITizFIxnyRm8alX1ikt-2">
          <mxGeometry relative="1" as="geometry" />
        </mxCell>
        <mxCell id="0ITizFIxnyRm8alX1ikt-3" value="&lt;font size=&quot;1&quot; face=&quot;FZJingLeiS-R-GB&quot;&gt;&lt;b style=&quot;font-size: 28px;&quot;&gt;非原始数据结构&lt;/b&gt;&lt;/font&gt;" style="rounded=1;whiteSpace=wrap;html=1;sketch=1;hachureGap=4;jiggle=2;curveFitting=1;fontFamily=Architects Daughter;fontSource=https%3A%2F%2Ffonts.googleapis.com%2Fcss%3Ffamily%3DArchitects%2BDaughter;fontSize=20;fillColor=#e1d5e7;strokeColor=#9673a6;strokeWidth=3;" vertex="1" parent="0ITizFIxnyRm8alX1ikt-30">
          <mxGeometry x="300" y="440" width="220" height="60" as="geometry" />
        </mxCell>
        <mxCell id="0ITizFIxnyRm8alX1ikt-28" style="edgeStyle=orthogonalEdgeStyle;rounded=0;sketch=1;hachureGap=4;jiggle=2;curveFitting=1;orthogonalLoop=1;jettySize=auto;html=1;exitX=0.5;exitY=0;exitDx=0;exitDy=0;fontFamily=Architects Daughter;fontSource=https%3A%2F%2Ffonts.googleapis.com%2Fcss%3Ffamily%3DArchitects%2BDaughter;fontSize=16;strokeWidth=3;" edge="1" parent="0ITizFIxnyRm8alX1ikt-30" source="0ITizFIxnyRm8alX1ikt-1" target="0ITizFIxnyRm8alX1ikt-3">
          <mxGeometry relative="1" as="geometry" />
        </mxCell>
        <mxCell id="0ITizFIxnyRm8alX1ikt-4" value="&lt;font size=&quot;1&quot; face=&quot;FZJingLeiS-R-GB&quot;&gt;&lt;b style=&quot;font-size: 28px;&quot;&gt;整型&lt;/b&gt;&lt;/font&gt;" style="rounded=1;whiteSpace=wrap;html=1;sketch=1;hachureGap=4;jiggle=2;curveFitting=1;fontFamily=Architects Daughter;fontSource=https%3A%2F%2Ffonts.googleapis.com%2Fcss%3Ffamily%3DArchitects%2BDaughter;fontSize=20;fillColor=#f8cecc;strokeColor=#b85450;strokeWidth=3;" vertex="1" parent="0ITizFIxnyRm8alX1ikt-30">
          <mxGeometry x="55" y="330" width="120" height="60" as="geometry" />
        </mxCell>
        <mxCell id="0ITizFIxnyRm8alX1ikt-8" style="edgeStyle=orthogonalEdgeStyle;rounded=0;sketch=1;hachureGap=4;jiggle=2;curveFitting=1;orthogonalLoop=1;jettySize=auto;html=1;exitX=0;exitY=0;exitDx=0;exitDy=0;entryX=0;entryY=0.5;entryDx=0;entryDy=0;fontFamily=Architects Daughter;fontSource=https%3A%2F%2Ffonts.googleapis.com%2Fcss%3Ffamily%3DArchitects%2BDaughter;fontSize=16;strokeWidth=3;" edge="1" parent="0ITizFIxnyRm8alX1ikt-30" source="0ITizFIxnyRm8alX1ikt-2" target="0ITizFIxnyRm8alX1ikt-4">
          <mxGeometry relative="1" as="geometry">
            <Array as="points">
              <mxPoint y="440" />
              <mxPoint y="360" />
            </Array>
          </mxGeometry>
        </mxCell>
        <mxCell id="0ITizFIxnyRm8alX1ikt-5" value="&lt;font size=&quot;1&quot; face=&quot;FZJingLeiS-R-GB&quot;&gt;&lt;b style=&quot;font-size: 28px;&quot;&gt;浮点型&lt;/b&gt;&lt;/font&gt;" style="rounded=1;whiteSpace=wrap;html=1;sketch=1;hachureGap=4;jiggle=2;curveFitting=1;fontFamily=Architects Daughter;fontSource=https%3A%2F%2Ffonts.googleapis.com%2Fcss%3Ffamily%3DArchitects%2BDaughter;fontSize=20;fillColor=#f8cecc;strokeColor=#b85450;strokeWidth=3;" vertex="1" parent="0ITizFIxnyRm8alX1ikt-30">
          <mxGeometry x="55" y="220" width="120" height="60" as="geometry" />
        </mxCell>
        <mxCell id="0ITizFIxnyRm8alX1ikt-9" style="edgeStyle=orthogonalEdgeStyle;rounded=0;sketch=1;hachureGap=4;jiggle=2;curveFitting=1;orthogonalLoop=1;jettySize=auto;html=1;exitX=0;exitY=0;exitDx=0;exitDy=0;entryX=0;entryY=0.5;entryDx=0;entryDy=0;fontFamily=Architects Daughter;fontSource=https%3A%2F%2Ffonts.googleapis.com%2Fcss%3Ffamily%3DArchitects%2BDaughter;fontSize=16;strokeWidth=3;" edge="1" parent="0ITizFIxnyRm8alX1ikt-30" source="0ITizFIxnyRm8alX1ikt-2" target="0ITizFIxnyRm8alX1ikt-5">
          <mxGeometry relative="1" as="geometry">
            <Array as="points">
              <mxPoint y="440" />
              <mxPoint y="250" />
            </Array>
          </mxGeometry>
        </mxCell>
        <mxCell id="0ITizFIxnyRm8alX1ikt-6" value="&lt;font size=&quot;1&quot; face=&quot;FZJingLeiS-R-GB&quot;&gt;&lt;b style=&quot;font-size: 28px;&quot;&gt;字符型&lt;/b&gt;&lt;/font&gt;" style="rounded=1;whiteSpace=wrap;html=1;sketch=1;hachureGap=4;jiggle=2;curveFitting=1;fontFamily=Architects Daughter;fontSource=https%3A%2F%2Ffonts.googleapis.com%2Fcss%3Ffamily%3DArchitects%2BDaughter;fontSize=20;fillColor=#f8cecc;strokeColor=#b85450;strokeWidth=3;" vertex="1" parent="0ITizFIxnyRm8alX1ikt-30">
          <mxGeometry x="55" y="110" width="120" height="60" as="geometry" />
        </mxCell>
        <mxCell id="0ITizFIxnyRm8alX1ikt-10" style="edgeStyle=orthogonalEdgeStyle;rounded=0;sketch=1;hachureGap=4;jiggle=2;curveFitting=1;orthogonalLoop=1;jettySize=auto;html=1;exitX=0;exitY=0;exitDx=0;exitDy=0;entryX=0;entryY=0.5;entryDx=0;entryDy=0;fontFamily=Architects Daughter;fontSource=https%3A%2F%2Ffonts.googleapis.com%2Fcss%3Ffamily%3DArchitects%2BDaughter;fontSize=16;strokeWidth=3;" edge="1" parent="0ITizFIxnyRm8alX1ikt-30" source="0ITizFIxnyRm8alX1ikt-2" target="0ITizFIxnyRm8alX1ikt-6">
          <mxGeometry relative="1" as="geometry">
            <Array as="points">
              <mxPoint y="440" />
              <mxPoint y="140" />
            </Array>
          </mxGeometry>
        </mxCell>
        <mxCell id="0ITizFIxnyRm8alX1ikt-7" value="&lt;font size=&quot;1&quot; face=&quot;FZJingLeiS-R-GB&quot;&gt;&lt;b style=&quot;font-size: 28px;&quot;&gt;指针&lt;/b&gt;&lt;/font&gt;" style="rounded=1;whiteSpace=wrap;html=1;sketch=1;hachureGap=4;jiggle=2;curveFitting=1;fontFamily=Architects Daughter;fontSource=https%3A%2F%2Ffonts.googleapis.com%2Fcss%3Ffamily%3DArchitects%2BDaughter;fontSize=20;fillColor=#f8cecc;strokeColor=#b85450;strokeWidth=3;" vertex="1" parent="0ITizFIxnyRm8alX1ikt-30">
          <mxGeometry x="55" width="120" height="60" as="geometry" />
        </mxCell>
        <mxCell id="0ITizFIxnyRm8alX1ikt-11" style="edgeStyle=orthogonalEdgeStyle;rounded=0;sketch=1;hachureGap=4;jiggle=2;curveFitting=1;orthogonalLoop=1;jettySize=auto;html=1;exitX=0;exitY=0;exitDx=0;exitDy=0;entryX=0;entryY=0.5;entryDx=0;entryDy=0;fontFamily=Architects Daughter;fontSource=https%3A%2F%2Ffonts.googleapis.com%2Fcss%3Ffamily%3DArchitects%2BDaughter;fontSize=16;strokeWidth=3;" edge="1" parent="0ITizFIxnyRm8alX1ikt-30" source="0ITizFIxnyRm8alX1ikt-2" target="0ITizFIxnyRm8alX1ikt-7">
          <mxGeometry relative="1" as="geometry">
            <Array as="points">
              <mxPoint y="440" />
              <mxPoint y="30" />
            </Array>
          </mxGeometry>
        </mxCell>
        <mxCell id="0ITizFIxnyRm8alX1ikt-12" value="&lt;font size=&quot;1&quot; face=&quot;FZJingLeiS-R-GB&quot;&gt;&lt;b style=&quot;font-size: 28px;&quot;&gt;数组&lt;/b&gt;&lt;/font&gt;" style="rounded=1;whiteSpace=wrap;html=1;sketch=1;hachureGap=4;jiggle=2;curveFitting=1;fontFamily=Architects Daughter;fontSource=https%3A%2F%2Ffonts.googleapis.com%2Fcss%3Ffamily%3DArchitects%2BDaughter;fontSize=20;fillColor=#f8cecc;strokeColor=#b85450;strokeWidth=3;" vertex="1" parent="0ITizFIxnyRm8alX1ikt-30">
          <mxGeometry x="310" y="330" width="120" height="60" as="geometry" />
        </mxCell>
        <mxCell id="0ITizFIxnyRm8alX1ikt-20" style="edgeStyle=orthogonalEdgeStyle;rounded=0;sketch=1;hachureGap=4;jiggle=2;curveFitting=1;orthogonalLoop=1;jettySize=auto;html=1;exitX=0;exitY=0;exitDx=0;exitDy=0;entryX=0;entryY=0.5;entryDx=0;entryDy=0;fontFamily=Architects Daughter;fontSource=https%3A%2F%2Ffonts.googleapis.com%2Fcss%3Ffamily%3DArchitects%2BDaughter;fontSize=16;strokeWidth=3;" edge="1" parent="0ITizFIxnyRm8alX1ikt-30" source="0ITizFIxnyRm8alX1ikt-3" target="0ITizFIxnyRm8alX1ikt-12">
          <mxGeometry relative="1" as="geometry">
            <Array as="points">
              <mxPoint x="280" y="440" />
              <mxPoint x="280" y="360" />
            </Array>
          </mxGeometry>
        </mxCell>
        <mxCell id="0ITizFIxnyRm8alX1ikt-13" value="&lt;font size=&quot;1&quot; face=&quot;FZJingLeiS-R-GB&quot;&gt;&lt;b style=&quot;font-size: 28px;&quot;&gt;线性结构&lt;/b&gt;&lt;/font&gt;" style="rounded=1;whiteSpace=wrap;html=1;sketch=1;hachureGap=4;jiggle=2;curveFitting=1;fontFamily=Architects Daughter;fontSource=https%3A%2F%2Ffonts.googleapis.com%2Fcss%3Ffamily%3DArchitects%2BDaughter;fontSize=20;fillColor=#f8cecc;strokeColor=#b85450;strokeWidth=3;" vertex="1" parent="0ITizFIxnyRm8alX1ikt-30">
          <mxGeometry x="310" y="220" width="120" height="60" as="geometry" />
        </mxCell>
        <mxCell id="0ITizFIxnyRm8alX1ikt-21" style="edgeStyle=orthogonalEdgeStyle;rounded=0;sketch=1;hachureGap=4;jiggle=2;curveFitting=1;orthogonalLoop=1;jettySize=auto;html=1;exitX=0;exitY=0;exitDx=0;exitDy=0;entryX=0;entryY=0.5;entryDx=0;entryDy=0;fontFamily=Architects Daughter;fontSource=https%3A%2F%2Ffonts.googleapis.com%2Fcss%3Ffamily%3DArchitects%2BDaughter;fontSize=16;strokeWidth=3;" edge="1" parent="0ITizFIxnyRm8alX1ikt-30" source="0ITizFIxnyRm8alX1ikt-3" target="0ITizFIxnyRm8alX1ikt-13">
          <mxGeometry relative="1" as="geometry">
            <Array as="points">
              <mxPoint x="280" y="440" />
              <mxPoint x="280" y="250" />
            </Array>
          </mxGeometry>
        </mxCell>
        <mxCell id="0ITizFIxnyRm8alX1ikt-14" value="&lt;font size=&quot;1&quot; face=&quot;FZJingLeiS-R-GB&quot;&gt;&lt;b style=&quot;font-size: 28px;&quot;&gt;非线性结构&lt;/b&gt;&lt;/font&gt;" style="rounded=1;whiteSpace=wrap;html=1;sketch=1;hachureGap=4;jiggle=2;curveFitting=1;fontFamily=Architects Daughter;fontSource=https%3A%2F%2Ffonts.googleapis.com%2Fcss%3Ffamily%3DArchitects%2BDaughter;fontSize=20;fillColor=#f8cecc;strokeColor=#b85450;strokeWidth=3;" vertex="1" parent="0ITizFIxnyRm8alX1ikt-30">
          <mxGeometry x="310" y="110" width="150" height="60" as="geometry" />
        </mxCell>
        <mxCell id="0ITizFIxnyRm8alX1ikt-22" style="edgeStyle=orthogonalEdgeStyle;rounded=0;sketch=1;hachureGap=4;jiggle=2;curveFitting=1;orthogonalLoop=1;jettySize=auto;html=1;exitX=0;exitY=0;exitDx=0;exitDy=0;entryX=0;entryY=0.5;entryDx=0;entryDy=0;fontFamily=Architects Daughter;fontSource=https%3A%2F%2Ffonts.googleapis.com%2Fcss%3Ffamily%3DArchitects%2BDaughter;fontSize=16;strokeWidth=3;" edge="1" parent="0ITizFIxnyRm8alX1ikt-30" source="0ITizFIxnyRm8alX1ikt-3" target="0ITizFIxnyRm8alX1ikt-14">
          <mxGeometry relative="1" as="geometry">
            <Array as="points">
              <mxPoint x="280" y="440" />
              <mxPoint x="280" y="140" />
            </Array>
          </mxGeometry>
        </mxCell>
        <mxCell id="0ITizFIxnyRm8alX1ikt-15" value="&lt;font face=&quot;FZJingLeiS-R-GB&quot;&gt;&lt;span style=&quot;font-size: 28px;&quot;&gt;&lt;b&gt;文件&lt;/b&gt;&lt;/span&gt;&lt;/font&gt;" style="rounded=1;whiteSpace=wrap;html=1;sketch=1;hachureGap=4;jiggle=2;curveFitting=1;fontFamily=Architects Daughter;fontSource=https%3A%2F%2Ffonts.googleapis.com%2Fcss%3Ffamily%3DArchitects%2BDaughter;fontSize=20;fillColor=#f8cecc;strokeColor=#b85450;strokeWidth=3;" vertex="1" parent="0ITizFIxnyRm8alX1ikt-30">
          <mxGeometry x="310" width="120" height="60" as="geometry" />
        </mxCell>
        <mxCell id="0ITizFIxnyRm8alX1ikt-23" style="edgeStyle=orthogonalEdgeStyle;rounded=0;sketch=1;hachureGap=4;jiggle=2;curveFitting=1;orthogonalLoop=1;jettySize=auto;html=1;exitX=0;exitY=0;exitDx=0;exitDy=0;entryX=0;entryY=0.5;entryDx=0;entryDy=0;fontFamily=Architects Daughter;fontSource=https%3A%2F%2Ffonts.googleapis.com%2Fcss%3Ffamily%3DArchitects%2BDaughter;fontSize=16;strokeWidth=3;" edge="1" parent="0ITizFIxnyRm8alX1ikt-30" source="0ITizFIxnyRm8alX1ikt-3" target="0ITizFIxnyRm8alX1ikt-15">
          <mxGeometry relative="1" as="geometry">
            <Array as="points">
              <mxPoint x="280" y="440" />
              <mxPoint x="280" y="30" />
            </Array>
          </mxGeometry>
        </mxCell>
        <mxCell id="0ITizFIxnyRm8alX1ikt-16" value="&lt;font size=&quot;1&quot; face=&quot;FZJingLeiS-R-GB&quot;&gt;&lt;b style=&quot;font-size: 28px;&quot;&gt;栈&lt;/b&gt;&lt;/font&gt;" style="rounded=1;whiteSpace=wrap;html=1;sketch=1;hachureGap=4;jiggle=2;curveFitting=1;fontFamily=Architects Daughter;fontSource=https%3A%2F%2Ffonts.googleapis.com%2Fcss%3Ffamily%3DArchitects%2BDaughter;fontSize=20;fillColor=#f8cecc;strokeColor=#b85450;strokeWidth=3;" vertex="1" parent="0ITizFIxnyRm8alX1ikt-30">
          <mxGeometry x="520" y="290" width="120" height="60" as="geometry" />
        </mxCell>
        <mxCell id="0ITizFIxnyRm8alX1ikt-27" style="edgeStyle=orthogonalEdgeStyle;rounded=0;sketch=1;hachureGap=4;jiggle=2;curveFitting=1;orthogonalLoop=1;jettySize=auto;html=1;exitX=1;exitY=0.5;exitDx=0;exitDy=0;entryX=0;entryY=0.5;entryDx=0;entryDy=0;fontFamily=Architects Daughter;fontSource=https%3A%2F%2Ffonts.googleapis.com%2Fcss%3Ffamily%3DArchitects%2BDaughter;fontSize=16;strokeWidth=3;" edge="1" parent="0ITizFIxnyRm8alX1ikt-30" source="0ITizFIxnyRm8alX1ikt-13" target="0ITizFIxnyRm8alX1ikt-16">
          <mxGeometry relative="1" as="geometry" />
        </mxCell>
        <mxCell id="0ITizFIxnyRm8alX1ikt-17" value="&lt;font size=&quot;1&quot; face=&quot;FZJingLeiS-R-GB&quot;&gt;&lt;b style=&quot;font-size: 28px;&quot;&gt;串&lt;/b&gt;&lt;/font&gt;" style="rounded=1;whiteSpace=wrap;html=1;sketch=1;hachureGap=4;jiggle=2;curveFitting=1;fontFamily=Architects Daughter;fontSource=https%3A%2F%2Ffonts.googleapis.com%2Fcss%3Ffamily%3DArchitects%2BDaughter;fontSize=20;fillColor=#f8cecc;strokeColor=#b85450;strokeWidth=3;" vertex="1" parent="0ITizFIxnyRm8alX1ikt-30">
          <mxGeometry x="520" y="210" width="120" height="60" as="geometry" />
        </mxCell>
        <mxCell id="0ITizFIxnyRm8alX1ikt-26" style="edgeStyle=orthogonalEdgeStyle;rounded=0;sketch=1;hachureGap=4;jiggle=2;curveFitting=1;orthogonalLoop=1;jettySize=auto;html=1;exitX=1;exitY=0.5;exitDx=0;exitDy=0;entryX=0;entryY=0.5;entryDx=0;entryDy=0;fontFamily=Architects Daughter;fontSource=https%3A%2F%2Ffonts.googleapis.com%2Fcss%3Ffamily%3DArchitects%2BDaughter;fontSize=16;strokeWidth=3;" edge="1" parent="0ITizFIxnyRm8alX1ikt-30" source="0ITizFIxnyRm8alX1ikt-13" target="0ITizFIxnyRm8alX1ikt-17">
          <mxGeometry relative="1" as="geometry" />
        </mxCell>
        <mxCell id="0ITizFIxnyRm8alX1ikt-18" value="&lt;font size=&quot;1&quot; face=&quot;FZJingLeiS-R-GB&quot;&gt;&lt;b style=&quot;font-size: 28px;&quot;&gt;树&lt;/b&gt;&lt;/font&gt;" style="rounded=1;whiteSpace=wrap;html=1;sketch=1;hachureGap=4;jiggle=2;curveFitting=1;fontFamily=Architects Daughter;fontSource=https%3A%2F%2Ffonts.googleapis.com%2Fcss%3Ffamily%3DArchitects%2BDaughter;fontSize=20;fillColor=#f8cecc;strokeColor=#b85450;strokeWidth=3;" vertex="1" parent="0ITizFIxnyRm8alX1ikt-30">
          <mxGeometry x="520" y="130" width="120" height="60" as="geometry" />
        </mxCell>
        <mxCell id="0ITizFIxnyRm8alX1ikt-25" style="edgeStyle=orthogonalEdgeStyle;rounded=0;sketch=1;hachureGap=4;jiggle=2;curveFitting=1;orthogonalLoop=1;jettySize=auto;html=1;exitX=1;exitY=0.5;exitDx=0;exitDy=0;entryX=0;entryY=0.5;entryDx=0;entryDy=0;fontFamily=Architects Daughter;fontSource=https%3A%2F%2Ffonts.googleapis.com%2Fcss%3Ffamily%3DArchitects%2BDaughter;fontSize=16;strokeWidth=3;" edge="1" parent="0ITizFIxnyRm8alX1ikt-30" source="0ITizFIxnyRm8alX1ikt-14" target="0ITizFIxnyRm8alX1ikt-18">
          <mxGeometry relative="1" as="geometry" />
        </mxCell>
        <mxCell id="0ITizFIxnyRm8alX1ikt-19" value="&lt;font size=&quot;1&quot; face=&quot;FZJingLeiS-R-GB&quot;&gt;&lt;b style=&quot;font-size: 28px;&quot;&gt;图&lt;/b&gt;&lt;/font&gt;" style="rounded=1;whiteSpace=wrap;html=1;sketch=1;hachureGap=4;jiggle=2;curveFitting=1;fontFamily=Architects Daughter;fontSource=https%3A%2F%2Ffonts.googleapis.com%2Fcss%3Ffamily%3DArchitects%2BDaughter;fontSize=20;fillColor=#f8cecc;strokeColor=#b85450;strokeWidth=3;" vertex="1" parent="0ITizFIxnyRm8alX1ikt-30">
          <mxGeometry x="520" y="50" width="120" height="60" as="geometry" />
        </mxCell>
        <mxCell id="0ITizFIxnyRm8alX1ikt-24" style="edgeStyle=orthogonalEdgeStyle;rounded=0;sketch=1;hachureGap=4;jiggle=2;curveFitting=1;orthogonalLoop=1;jettySize=auto;html=1;exitX=1;exitY=0.5;exitDx=0;exitDy=0;entryX=0;entryY=0.5;entryDx=0;entryDy=0;fontFamily=Architects Daughter;fontSource=https%3A%2F%2Ffonts.googleapis.com%2Fcss%3Ffamily%3DArchitects%2BDaughter;fontSize=16;strokeWidth=3;" edge="1" parent="0ITizFIxnyRm8alX1ikt-30" source="0ITizFIxnyRm8alX1ikt-14" target="0ITizFIxnyRm8alX1ikt-19">
          <mxGeometry relative="1" as="geometry" />
        </mxCell>
      </root>
    </mxGraphModel>
  </diagram>
</mxfile>
